<?xml version="1.0" encoding="UTF-8" standalone="no"?>
<!-- Created with Inkscape (http://www.inkscape.org/) -->

<svg
   xmlns:dc="http://purl.org/dc/elements/1.1/"
   xmlns:cc="http://creativecommons.org/ns#"
   xmlns:rdf="http://www.w3.org/1999/02/22-rdf-syntax-ns#"
   xmlns:svg="http://www.w3.org/2000/svg"
   xmlns="http://www.w3.org/2000/svg"
   xmlns:sodipodi="http://sodipodi.sourceforge.net/DTD/sodipodi-0.dtd"
   xmlns:inkscape="http://www.inkscape.org/namespaces/inkscape"
   width="420mm"
   height="297mm"
   viewBox="0 0 420 297"
   version="1.1"
   id="svg8"
   sodipodi:docname="sd_symbols_template.svg"
   inkscape:version="0.92.3 (2405546, 2018-03-11)">
  <defs
     id="defs2">
    <marker
       inkscape:stockid="Arrow1Lend"
       orient="auto"
       refY="0"
       refX="0"
       id="marker968"
       style="overflow:visible"
       inkscape:isstock="true">
      <path
         id="path966"
         d="M 0,0 5,-5 -12.5,0 5,5 Z"
         style="fill:#0000ff;fill-opacity:1;fill-rule:evenodd;stroke:#0000ff;stroke-width:1.00000003pt;stroke-opacity:1"
         transform="matrix(-0.8,0,0,-0.8,-10,0)"
         inkscape:connector-curvature="0" />
    </marker>
    <marker
       inkscape:stockid="Arrow1Lend"
       orient="auto"
       refY="0"
       refX="0"
       id="marker956"
       style="overflow:visible"
       inkscape:isstock="true"
       inkscape:collect="always">
      <path
         id="path954"
         d="M 0,0 5,-5 -12.5,0 5,5 Z"
         style="fill:#0000ff;fill-opacity:1;fill-rule:evenodd;stroke:#0000ff;stroke-width:1.00000003pt;stroke-opacity:1"
         transform="matrix(-0.8,0,0,-0.8,-10,0)"
         inkscape:connector-curvature="0" />
    </marker>
    <marker
       inkscape:stockid="Arrow1Lend"
       orient="auto"
       refY="0"
       refX="0"
       id="marker950"
       style="overflow:visible"
       inkscape:isstock="true">
      <path
         id="path948"
         d="M 0,0 5,-5 -12.5,0 5,5 Z"
         style="fill:#0000ff;fill-opacity:1;fill-rule:evenodd;stroke:#0000ff;stroke-width:1.00000003pt;stroke-opacity:1"
         transform="matrix(-0.8,0,0,-0.8,-10,0)"
         inkscape:connector-curvature="0" />
    </marker>
    <marker
       inkscape:isstock="true"
       style="overflow:visible"
       id="marker944"
       refX="0"
       refY="0"
       orient="auto"
       inkscape:stockid="Arrow1Lend">
      <path
         inkscape:connector-curvature="0"
         transform="matrix(-0.8,0,0,-0.8,-10,0)"
         style="fill:#0000ff;fill-opacity:1;fill-rule:evenodd;stroke:#0000ff;stroke-width:1.00000003pt;stroke-opacity:1"
         d="M 0,0 5,-5 -12.5,0 5,5 Z"
         id="path942" />
    </marker>
    <marker
       inkscape:stockid="Arrow1Lend"
       orient="auto"
       refY="0"
       refX="0"
       id="marker56450"
       style="overflow:visible"
       inkscape:isstock="true">
      <path
         id="path56448"
         d="M 0,0 5,-5 -12.5,0 5,5 Z"
         style="fill:#0000ff;fill-opacity:1;fill-rule:evenodd;stroke:#0000ff;stroke-width:1.00000003pt;stroke-opacity:1"
         transform="matrix(-0.8,0,0,-0.8,-10,0)"
         inkscape:connector-curvature="0" />
    </marker>
    <marker
       inkscape:stockid="Arrow1Lstart"
       orient="auto"
       refY="0"
       refX="0"
       id="Arrow1Lstart"
       style="overflow:visible"
       inkscape:isstock="true">
      <path
         id="path842"
         d="M 0,0 5,-5 -12.5,0 5,5 Z"
         style="fill:#000000;fill-opacity:1;fill-rule:evenodd;stroke:#000000;stroke-width:1.00000003pt;stroke-opacity:1"
         transform="matrix(0.8,0,0,0.8,10,0)"
         inkscape:connector-curvature="0" />
    </marker>
    <marker
       inkscape:isstock="true"
       style="overflow:visible"
       id="marker49322"
       refX="0"
       refY="0"
       orient="auto"
       inkscape:stockid="Arrow1Lend">
      <path
         inkscape:connector-curvature="0"
         transform="matrix(-0.8,0,0,-0.8,-10,0)"
         style="fill:#000000;fill-opacity:1;fill-rule:evenodd;stroke:#000000;stroke-width:1.00000003pt;stroke-opacity:1"
         d="M 0,0 5,-5 -12.5,0 5,5 Z"
         id="path49320" />
    </marker>
    <marker
       inkscape:isstock="true"
       style="overflow:visible"
       id="marker49144"
       refX="0"
       refY="0"
       orient="auto"
       inkscape:stockid="Arrow1Lend">
      <path
         inkscape:connector-curvature="0"
         transform="matrix(-0.8,0,0,-0.8,-10,0)"
         style="fill:#0000ff;fill-opacity:1;fill-rule:evenodd;stroke:#0000ff;stroke-width:1.00000003pt;stroke-opacity:1"
         d="M 0,0 5,-5 -12.5,0 5,5 Z"
         id="path49142" />
    </marker>
    <marker
       inkscape:isstock="true"
       style="overflow:visible"
       id="marker35986"
       refX="0"
       refY="0"
       orient="auto"
       inkscape:stockid="Arrow1Lend">
      <path
         inkscape:connector-curvature="0"
         transform="matrix(-0.8,0,0,-0.8,-10,0)"
         style="fill:#000000;fill-opacity:1;fill-rule:evenodd;stroke:#000000;stroke-width:1.00000003pt;stroke-opacity:1"
         d="M 0,0 5,-5 -12.5,0 5,5 Z"
         id="path35984" />
    </marker>
    <marker
       inkscape:isstock="true"
       style="overflow:visible"
       id="marker17161"
       refX="0"
       refY="0"
       orient="auto"
       inkscape:stockid="Arrow1Lend">
      <path
         inkscape:connector-curvature="0"
         transform="matrix(-0.8,0,0,-0.8,-10,0)"
         style="fill:#000000;fill-opacity:1;fill-rule:evenodd;stroke:#000000;stroke-width:1.00000003pt;stroke-opacity:1"
         d="M 0,0 5,-5 -12.5,0 5,5 Z"
         id="path17159" />
    </marker>
    <marker
       inkscape:isstock="true"
       style="overflow:visible"
       id="marker9845"
       refX="0"
       refY="0"
       orient="auto"
       inkscape:stockid="Arrow1Lend"
       inkscape:collect="always">
      <path
         inkscape:connector-curvature="0"
         transform="matrix(-0.8,0,0,-0.8,-10,0)"
         style="fill:#000000;fill-opacity:1;fill-rule:evenodd;stroke:#000000;stroke-width:1.00000003pt;stroke-opacity:1"
         d="M 0,0 5,-5 -12.5,0 5,5 Z"
         id="path9843" />
    </marker>
  </defs>
  <sodipodi:namedview
     id="base"
     pagecolor="#ffffff"
     bordercolor="#666666"
     borderopacity="1.0"
     inkscape:pageopacity="1"
     inkscape:pageshadow="2"
     inkscape:zoom="0.49497475"
     inkscape:cx="1475.9299"
     inkscape:cy="643.46458"
     inkscape:document-units="mm"
     inkscape:current-layer="layer1"
     showgrid="false"
     inkscape:window-width="1920"
     inkscape:window-height="966"
     inkscape:window-x="0"
     inkscape:window-y="27"
     inkscape:window-maximized="1" />
  <metadata
     id="metadata5">
    <rdf:RDF>
      <cc:Work
         rdf:about="">
        <dc:format>image/svg+xml</dc:format>
        <dc:type
           rdf:resource="http://purl.org/dc/dcmitype/StillImage" />
        <dc:title></dc:title>
      </cc:Work>
    </rdf:RDF>
  </metadata>
  <g
     inkscape:label="Layer 1"
     inkscape:groupmode="layer"
     id="layer1">
    <g
       id="g1187"
       transform="translate(16.252977,116.79464)">
      <rect
         y="50.559521"
         x="15.875"
         height="24.946428"
         width="52.160713"
         id="rect815"
         style="opacity:1;fill:none;fill-opacity:1;stroke:#000000;stroke-width:0.5;stroke-miterlimit:4;stroke-dasharray:none;stroke-dashoffset:0;stroke-opacity:1" />
      <text
         id="text819"
         y="64.922623"
         x="32.316963"
         style="font-style:normal;font-weight:normal;font-size:6.3499999px;line-height:1.25;font-family:sans-serif;letter-spacing:0px;word-spacing:0px;fill:#000000;fill-opacity:1;stroke:none;stroke-width:0.26458332"
         xml:space="preserve"><tspan
           style="stroke-width:0.26458332"
           y="64.922623"
           x="32.316963"
           id="tspan817"
           sodipodi:role="line">Stock</tspan></text>
    </g>
    <path
       style="fill:none;stroke:#000000;stroke-width:0.465;stroke-linecap:butt;stroke-linejoin:miter;stroke-miterlimit:4;stroke-dasharray:none;stroke-opacity:1"
       d="m 128.97047,184.68256 12.56167,16.97161 h -12.16076 l 11.89349,-16.83798 z"
       id="path862"
       inkscape:connector-curvature="0" />
    <text
       id="text866"
       y="194.94643"
       x="148.73364"
       style="font-style:normal;font-weight:normal;font-size:6.3499999px;line-height:1.25;font-family:sans-serif;letter-spacing:0px;word-spacing:0px;fill:#000000;fill-opacity:1;stroke:none;stroke-width:0.26458332"
       xml:space="preserve"><tspan
         style="stroke-width:0.26458332"
         y="194.94643"
         x="148.73364"
         id="tspan864"
         sodipodi:role="line">Valve</tspan></text>
    <path
       inkscape:connector-curvature="0"
       id="path881"
       d="m 65.017417,215.24304 c 0.78126,0.19656 0.47447,0.18186 0.9035,0.18186 0.0603,0 0.1382,0.0428 0.18066,0 0.0425,-0.0428 -0.0425,-0.13899 0,-0.18186 0.0425,-0.0428 0.13819,0.0428 0.18065,0 0.0425,-0.0428 -0.0425,-0.13899 0,-0.18186 0.0425,-0.0428 0.1382,0.0428 0.18066,0 0.0425,-0.0428 0,-0.12122 0,-0.18186 0.0603,0 0.1382,0.0428 0.18066,0 0.0425,-0.0428 -0.0425,-0.139 0,-0.18186 0.0425,-0.0428 0.13819,0.0428 0.18065,0 0.0425,-0.0428 -0.0425,-0.139 0,-0.18187 0.0852,-0.0857 0.27623,0.0857 0.36142,0 0.0425,-0.0428 -0.0603,-0.18186 0,-0.18186 0.0603,0 0.0603,0.18186 0,0.18186 -0.21906,0 0.0449,-0.22712 0.18066,-0.36371 0.0603,-0.0606 0.14252,-0.10519 0.18066,-0.18186 0.0271,-0.0542 -0.0425,-0.139 0,-0.18184 0.0852,-0.0857 0.27623,0.0857 0.36142,0 0.0425,-0.0428 -0.0425,-0.13899 0,-0.18186 0.0425,-0.0428 0.12035,0 0.18065,0 0.0663,0 0.71555,-0.007 0.72282,0 0.0425,0.0428 -0.0425,0.13899 0,0.18186 0.0852,0.0857 0.27623,-0.0857 0.36142,0 0.0425,0.0428 -0.0425,0.139 0,0.18184 0.0425,0.0428 0.1382,-0.0428 0.18066,0 0.0425,0.0428 -0.0425,0.13899 0,0.18186 0.12035,0.12117 0.24096,-0.12117 0.36139,0 0.12035,0.12117 -0.12035,0.24253 0,0.36371 0.0425,0.0428 0.1382,-0.0428 0.18066,0 0.37386,0.37627 -0.57134,-0.0147 0.18065,0.36371 0.10791,0.0542 0.27624,-0.0857 0.36143,0 0.0852,0.0857 -0.0852,0.27798 0,0.36371 0.0425,0.0428 0.13819,-0.0428 0.18065,0 0.37389,0.37627 -0.57134,-0.0147 0.18066,0.36372 0.10791,0.0542 0.27623,-0.0857 0.36142,0 0.0425,0.0428 -0.0425,0.13899 0,0.18186 0.0425,0.0428 0.1382,-0.0428 0.18066,0 0.0425,0.0428 -0.0425,0.13899 0,0.18186 0.0425,0.0428 0.13819,-0.0428 0.18065,0 0.24097,0.24248 -0.30119,0.18186 0.18066,0.18186 0.48188,0 -0.0603,-0.0606 0.18066,0.18187 0.0425,0.0428 0.12683,-0.0269 0.18065,0 0.0763,0.0383 0.10439,0.14351 0.18066,0.18186 0.0717,0.0361 0.50519,-0.0371 0.54213,0 0.0425,0.0428 -0.0425,0.13899 0,0.18186 0.0852,0.0857 0.27621,-0.0857 0.3614,0 0.0425,0.0428 -0.0425,0.139 0,0.18184 0.008,0.007 0.65644,0 0.72281,0 0.0603,0 0.12035,0 0.18066,0 0.0603,0 0.13819,0.0428 0.18065,0 0.0425,-0.0428 -0.0425,-0.139 0,-0.18184 0.0425,-0.0428 0.1382,0.0428 0.18066,0 0.0425,-0.0428 -0.027,-0.12765 0,-0.18186 0.0381,-0.0767 0.14252,-0.10517 0.18066,-0.18186 0.027,-0.0542 -0.0425,-0.139 0,-0.18187 0.0425,-0.0428 0.13819,0.0428 0.18065,0 0.0435,-0.0438 -0.0435,-0.68366 0,-0.72742 0.0425,-0.0428 0.1382,0.0428 0.18066,0 0.0427,-0.0428 -0.0425,-0.13899 0,-0.18186 0.0852,-0.0857 0.27623,0.0857 0.36142,0 0.0852,-0.0857 -0.0538,-0.25526 0,-0.36371 0.37603,-0.75684 -0.0135,0.19441 0.3614,-0.18186 0.0852,-0.0857 -0.0852,-0.27799 0,-0.36372 0.0425,-0.0428 0.13819,0.0428 0.18065,0 0.0425,-0.0428 -0.0425,-0.13899 0,-0.18186 0.0852,-0.0857 0.27623,0.0857 0.36142,0 0.0425,-0.0428 -0.0271,-0.12762 0,-0.18186 0.0381,-0.0767 0.14253,-0.10517 0.18066,-0.18184 0.0538,-0.10843 -0.0852,-0.27798 0,-0.36371 0.0425,-0.0428 0.1382,0.0428 0.18066,0 0.0425,-0.0428 0,-0.12125 0,-0.18187 0,-0.36371 0,-0.72741 0,-1.09113 0,-0.0606 -0.0425,-0.13899 0,-0.18186 0.0425,-0.0428 0.13819,0.0428 0.18065,0 0.0852,-0.0857 -0.0852,-0.27798 0,-0.36371 0.0425,-0.0428 0.1382,0.0428 0.18066,0 0.0903,-0.0909 -0.0903,-0.45464 0,-0.54557 0.37386,-0.37626 -0.0135,0.57499 0.36139,-0.18186 0.0243,-0.0478 0,-0.63232 0,-0.72742 0,-0.0951 0.0243,-0.6796 0,-0.72742 -0.0381,-0.0767 -0.14252,-0.10519 -0.18065,-0.18186 -0.0271,-0.0542 0.0425,-0.139 0,-0.18186 -0.0425,-0.0428 -0.1382,0.0428 -0.18066,0 -0.0425,-0.0428 0.0425,-0.13899 0,-0.18183 -0.0425,-0.0428 -0.1382,0.0428 -0.18066,0 -0.0852,-0.0857 0.0852,-0.27799 0,-0.36372 -0.0425,-0.0428 -0.13819,0.0428 -0.18065,0 -0.0425,-0.0428 0.0425,-0.13899 0,-0.18186 -0.0425,-0.0428 -0.1382,0.0428 -0.18066,0 -0.0425,-0.0428 0.0425,-0.139 0,-0.18186 -0.0425,-0.0428 -0.1382,0.0428 -0.18066,0 -0.0852,-0.0857 0.0538,-0.25527 0,-0.36371 -0.0381,-0.0767 -0.14252,-0.10516 -0.18065,-0.18186 -0.12468,-0.25083 0.21879,-0.16267 -0.18066,-0.36371 -0.0538,-0.0269 -0.1382,0.0428 -0.18066,0 -0.12034,-0.12117 0.12035,-0.24253 0,-0.36371 -0.0852,-0.0857 -0.2762,0.0857 -0.36139,0 -0.0852,-0.0857 0.0852,-0.27798 0,-0.36371 -0.0425,-0.0428 -0.1382,0.0428 -0.18066,0 -0.0425,-0.0428 0.027,-0.12765 0,-0.18186 -0.0381,-0.0767 -0.14252,-0.1052 -0.18065,-0.18187 -0.027,-0.0542 0.0427,-0.13899 0,-0.18186 -0.0425,-0.0428 -0.1382,0.0428 -0.18066,0 -0.0852,-0.0857 0.0852,-0.27798 0,-0.36371 -0.0425,-0.0428 -0.12684,0.0269 -0.18066,0 -0.75205,-0.37842 0.1931,0.0125 -0.18065,-0.36372 -0.0425,-0.0428 -0.1382,0.0428 -0.18066,0 -0.0425,-0.0428 0.0425,-0.13899 0,-0.18186 -0.0852,-0.0857 -0.25367,0.0542 -0.36142,0 -0.0763,-0.0383 -0.10466,-0.14351 -0.18066,-0.18183 -0.0538,-0.0269 -0.13819,0.0428 -0.18065,0 -0.0425,-0.0428 0.0425,-0.139 0,-0.18187 -0.48188,0 0.0603,0.0606 -0.18066,-0.18186 -0.0903,-0.0909 -0.45178,0.0909 -0.5421,0 -0.0425,-0.0428 0.0425,-0.13899 0,-0.18186 -0.0425,-0.0428 -0.12035,0 -0.18066,0 -0.12576,0 -0.83819,0.0329 -0.90353,0 -0.0763,-0.0383 -0.10439,-0.14351 -0.18065,-0.18186 -0.0549,-0.0277 -0.46076,0 -0.54213,0 -0.42163,0 -0.84328,0 -1.26493,0 -0.0603,0 -0.12683,-0.0269 -0.18065,0 -0.14685,0.0739 -0.14956,0.28847 -0.3614,0.18186 -0.36547,-0.1839 -0.0579,-0.42203 -0.18065,-0.54556 -0.0425,-0.0428 -0.18066,0.0606 -0.18066,0 0,-0.0606 0.18066,0.0606 0.18066,0 0,-0.22473 -0.25341,-0.18187 -0.3614,-0.18187 -0.48187,0 0.0603,0.0606 -0.18065,-0.18186 -0.0368,-0.0372 -0.47047,0.0361 -0.54211,0 -0.0763,-0.0383 -0.10466,-0.14351 -0.18065,-0.18186 -0.10764,-0.0542 -0.25368,0.0542 -0.36143,0 -0.0763,-0.0383 -0.10439,-0.14351 -0.18065,-0.18186 -0.10764,-0.0542 -0.25368,0.0542 -0.36142,0 -0.0763,-0.0383 -0.10439,-0.14352 -0.18066,-0.18187 -0.0538,-0.0269 -0.12035,0 -0.18066,0 -0.0603,0 -0.12061,0 -0.18065,0 -0.36142,0 -0.72282,0 -1.08421,0 -0.0603,0 -0.1382,-0.0428 -0.18066,0 -0.0425,0.0428 0.0425,0.139 0,0.18187 -0.0425,0.0428 -0.1382,-0.0428 -0.18066,0 -0.0852,0.0857 0.0852,0.27797 0,0.3637 -0.0425,0.0428 -0.13819,-0.0428 -0.18065,0 -0.0425,0.0428 0.0603,0.18186 0,0.18186 -0.0603,0 0.0425,-0.22472 0,-0.18186 -0.0952,0.0959 -0.1382,0.23513 -0.18066,0.36372 -0.0189,0.0575 0.0425,0.13899 0,0.18186 -0.0425,0.0428 -0.1382,-0.0428 -0.18066,0 -0.0425,0.0428 0.0425,0.13899 0,0.18186 -0.37388,0.37626 0.0135,-0.57498 -0.36139,0.18186 -0.027,0.0542 0.0425,0.139 0,0.18187 -0.0852,0.0857 -0.27623,-0.0857 -0.36142,0 -0.0852,0.0857 0.0852,0.27798 0,0.36371 -0.0852,0.0857 -0.27623,-0.0857 -0.36142,0 -0.0852,0.0857 0.0852,0.27798 0,0.36371 -0.0425,0.0428 -0.1382,-0.0428 -0.18066,0 -0.0425,0.0428 0.0603,0.18186 0,0.18186 -0.25611,0 0.51198,-0.84866 0,0.18186 -0.027,0.0542 -0.12062,0 -0.18065,0 -0.30117,0 -0.60236,0 -0.90353,0 -0.42379,0 0.0852,-0.0428 -0.3614,0.18186 -0.0717,0.0361 -0.50516,-0.0371 -0.54213,0 -0.0425,0.0428 0.0425,0.139 0,0.18187 -0.0425,0.0428 -0.18065,0.0606 -0.18065,0 0,-0.0606 0.18065,-0.0606 0.18065,0 0,0.37841 -0.2534,0.0732 -0.36139,0.18186 -0.0425,0.0428 0.0425,0.13899 0,0.18186 -0.0425,0.0428 -0.1382,-0.0428 -0.18066,0 -0.37386,0.37626 0.57137,-0.0147 -0.18065,0.36371 -0.0538,0.0269 -0.1382,-0.0428 -0.18066,0 -0.37389,0.37627 0.57134,-0.0147 -0.18066,0.36371 -0.0538,0.0269 -0.13819,-0.0428 -0.18065,0 -0.14118,0.14215 0.15712,0.31636 0.18065,0.36371 0.027,0.0542 -0.0425,0.139 0,0.18186 0.0427,0.0428 0.1382,-0.0428 0.18066,0 0.008,0.007 0,0.66064 0,0.72742 0,0.0606 0,0.12123 0,0.18187 0,0.0606 0.0603,0.18186 0,0.18186 -0.0603,0 -0.0603,-0.18186 0,-0.18186 0.37602,0 0.0727,0.25502 0.18066,0.36371 0.0852,0.0857 0.2762,-0.0857 0.36139,0 0.0425,0.0428 -0.0271,0.12762 0,0.18183 0.0381,0.0767 0.14252,0.10519 0.18066,0.18186 0.0538,0.10844 -0.0538,0.25527 0,0.36372 0.0381,0.0767 0.14252,0.10519 0.18065,0.18186 0.0722,0.14547 -0.0722,0.40008 0,0.54556 0.0381,0.0767 0.14253,0.1052 0.18066,0.18187 0.0625,0.1256 -0.0633,0.84543 0,0.90927 0.0425,0.0428 0.1382,-0.0428 0.18066,0 0.0425,0.0428 -0.0425,0.139 0,0.18186 0.0425,0.0428 0.13819,-0.0428 0.18065,0 0.005,0.006 0,0.50146 0,0.54557 0,0.0606 0,0.12122 0,0.18186 0,0.0606 0.0603,0.18186 0,0.18186 -0.0603,0 -0.0603,-0.18186 0,-0.18186 0.0852,0 0.14253,0.10519 0.18066,0.18186 0.0357,0.0721 -0.037,0.50838 0,0.54556 0.0425,0.0428 0.1382,-0.0428 0.18066,0 0.0425,0.0428 -0.0425,0.139 0,0.18187 0.0425,0.0428 0.13819,-0.0428 0.18065,0 0.0852,0.0857 -0.0852,0.27798 0,0.36371 0.0425,0.0428 0.18066,-0.0606 0.18066,0 0,0.0544 -0.59933,-0.11973 0,0.18186 0.10764,0.0542 0.2762,-0.0857 0.36139,0 0.0425,0.0428 -0.0425,0.139 0,0.18184 0.0425,0.0428 0.12684,-0.0269 0.18066,0 0.0763,0.0383 0.10439,0.14351 0.18066,0.18186 0.0538,0.0269 0.13819,-0.0428 0.18065,0 0.0425,0.0428 -0.0425,0.13899 0,0.18186 0.0425,0.0428 0.18066,-0.0606 0.18066,0 0,0.0606 -0.18066,-0.0606 -0.18066,0 0,0.30157 0.25341,0.12751 0.36142,0.18186 0.0763,0.0383 0.12062,0.12123 0.18066,0.18187 0.0603,0.0606 0.14252,0.10516 0.18066,0.18186 0.0271,0.0542 -0.0427,0.13899 0,0.18186 0.0425,0.0428 0.13819,-0.0428 0.18065,0 0.0425,0.0428 -0.0425,0.139 0,0.18186 0.0425,0.0428 0.12062,0 0.18066,0 0.24097,0 0.48188,0 0.72282,0 z"
       style="fill:none;stroke:#000000;stroke-width:0.565;stroke-linecap:butt;stroke-linejoin:miter;stroke-miterlimit:4;stroke-dasharray:none;stroke-opacity:1" />
    <g
       id="g22318"
       transform="translate(105.07738,167.82143)">
      <path
         transform="matrix(0,0.64702336,-1,0,139.00594,-56.059763)"
         inkscape:transform-center-x="-1.6903583"
         d="m 100.53862,85.879226 -11.711165,0 5.855582,-10.142165 z"
         inkscape:randomized="0"
         inkscape:rounded="0"
         inkscape:flatsided="true"
         sodipodi:arg2="1.5707963"
         sodipodi:arg1="0.52359878"
         sodipodi:r2="3.3807216"
         sodipodi:r1="6.7614436"
         sodipodi:cy="82.498505"
         sodipodi:cx="94.683037"
         sodipodi:sides="3"
         id="path883"
         style="opacity:1;fill:#000000;fill-opacity:1;stroke:#000000;stroke-width:0.70240635;stroke-miterlimit:4;stroke-dasharray:none;stroke-dashoffset:0;stroke-opacity:1"
         sodipodi:type="star" />
      <path
         inkscape:connector-curvature="0"
         id="path885"
         d="M -7.141551,6.766418 H 52.767672"
         style="fill:none;stroke:#000000;stroke-width:0.76499999;stroke-linecap:butt;stroke-linejoin:miter;stroke-miterlimit:4;stroke-dasharray:none;stroke-opacity:1" />
      <path
         style="fill:none;stroke:#000000;stroke-width:0.76499999;stroke-linecap:butt;stroke-linejoin:miter;stroke-miterlimit:4;stroke-dasharray:none;stroke-opacity:1"
         d="M -7.144268,3.973696 H 52.764955"
         id="path887"
         inkscape:connector-curvature="0" />
    </g>
    <path
       style="fill:none;stroke:#000000;stroke-width:0.565;stroke-linecap:butt;stroke-linejoin:miter;stroke-miterlimit:4;stroke-dasharray:none;stroke-opacity:1;marker-end:url(#marker9845)"
       d="M 82.871277,210.15996 H 108.66816"
       id="path9835"
       inkscape:connector-curvature="0" />
    <g
       id="g52409"
       transform="translate(-74.174483,191.79792)">
      <g
         transform="matrix(0,-1,-1,0,216.57763,216.5751)"
         id="g52403">
        <path
           sodipodi:type="spiral"
           style="fill:none;fill-rule:evenodd;stroke:#000000;stroke-width:0.565;stroke-miterlimit:4;stroke-dasharray:none"
           id="path52399"
           sodipodi:cx="174.24702"
           sodipodi:cy="41.110111"
           sodipodi:expansion="0"
           sodipodi:revolution="0.85000002"
           sodipodi:radius="10.426937"
           sodipodi:argument="-18.038523"
           sodipodi:t0="0.12153926"
           d="m 175.39849,51.473274 c -5.64515,0.627241 -10.88739,-3.566546 -11.51463,-9.211697 -0.62724,-5.645152 3.56655,-10.887388 9.2117,-11.514629 5.56329,-0.618144 10.75481,3.447308 11.48845,8.996544" />
        <path
           sodipodi:type="star"
           style="opacity:1;fill:#000000;fill-opacity:1;stroke:#000000;stroke-width:0.68526381;stroke-miterlimit:4;stroke-dasharray:none;stroke-dashoffset:0;stroke-opacity:1"
           id="path52401"
           sodipodi:sides="3"
           sodipodi:cx="175.56993"
           sodipodi:cy="60.197906"
           sodipodi:r1="3.9732473"
           sodipodi:r2="1.9866236"
           sodipodi:arg1="0.52359878"
           sodipodi:arg2="1.5707963"
           inkscape:flatsided="true"
           inkscape:rounded="0"
           inkscape:randomized="0"
           d="m 179.01086,62.18453 -6.88186,0 3.44093,-5.959871 z"
           inkscape:transform-center-x="-0.99330609"
           transform="matrix(0,0.67980009,-1,0,236.57103,-67.626868)" />
      </g>
      <text
         id="text52407"
         y="45.232098"
         x="172.52248"
         style="font-style:normal;font-weight:normal;font-size:8.46666622px;line-height:1.25;font-family:sans-serif;letter-spacing:0px;word-spacing:0px;fill:#000000;fill-opacity:1;stroke:none;stroke-width:0.26458332"
         xml:space="preserve"><tspan
           style="stroke-width:0.26458332"
           y="45.232098"
           x="172.52248"
           id="tspan52405"
           sodipodi:role="line">B</tspan></text>
    </g>
    <g
       transform="translate(-107.49,192.3211)"
       id="g52421">
      <g
         id="g52415"
         transform="matrix(0,-1,-1,0,216.57763,216.5751)">
        <path
           d="m 175.39849,51.473274 c -5.64515,0.627241 -10.88739,-3.566546 -11.51463,-9.211697 -0.62724,-5.645152 3.56655,-10.887388 9.2117,-11.514629 5.56329,-0.618144 10.75481,3.447308 11.48845,8.996544"
           sodipodi:t0="0.12153926"
           sodipodi:argument="-18.038523"
           sodipodi:radius="10.426937"
           sodipodi:revolution="0.85000002"
           sodipodi:expansion="0"
           sodipodi:cy="41.110111"
           sodipodi:cx="174.24702"
           id="path52411"
           style="fill:none;fill-rule:evenodd;stroke:#000000;stroke-width:0.565;stroke-miterlimit:4;stroke-dasharray:none"
           sodipodi:type="spiral" />
        <path
           transform="matrix(0,0.67980009,-1,0,236.57103,-67.626868)"
           inkscape:transform-center-x="-0.99330609"
           d="m 179.01086,62.18453 -6.88186,0 3.44093,-5.959871 z"
           inkscape:randomized="0"
           inkscape:rounded="0"
           inkscape:flatsided="true"
           sodipodi:arg2="1.5707963"
           sodipodi:arg1="0.52359878"
           sodipodi:r2="1.9866236"
           sodipodi:r1="3.9732473"
           sodipodi:cy="60.197906"
           sodipodi:cx="175.56993"
           sodipodi:sides="3"
           id="path52413"
           style="opacity:1;fill:#000000;fill-opacity:1;stroke:#000000;stroke-width:0.68526381;stroke-miterlimit:4;stroke-dasharray:none;stroke-dashoffset:0;stroke-opacity:1"
           sodipodi:type="star" />
      </g>
      <text
         xml:space="preserve"
         style="font-style:normal;font-weight:normal;font-size:8.46666622px;line-height:1.25;font-family:sans-serif;letter-spacing:0px;word-spacing:0px;fill:#000000;fill-opacity:1;stroke:none;stroke-width:0.26458332"
         x="172.52248"
         y="45.232098"
         id="text52419"><tspan
           sodipodi:role="line"
           id="tspan52417"
           x="172.52248"
           y="45.232098"
           style="stroke-width:0.26458332">R</tspan></text>
    </g>
    <path
       style="fill:none;stroke:#0000ff;stroke-width:0.565;stroke-linecap:butt;stroke-linejoin:miter;stroke-miterlimit:4;stroke-dasharray:none;stroke-opacity:1;marker-end:url(#marker56450)"
       d="m 179.58298,213.63402 c -12.3126,-0.30527 -27.21241,-0.26831 -36.78352,24.56845"
       id="path52425"
       inkscape:connector-curvature="0"
       sodipodi:nodetypes="cc" />
    <text
       id="text52429"
       y="265.061"
       x="122.65329"
       style="font-style:normal;font-weight:normal;font-size:14.11111069px;line-height:1.25;font-family:sans-serif;letter-spacing:0px;word-spacing:0px;fill:#0000ff;fill-opacity:1;stroke:#0000ff;stroke-width:0.26458332"
       xml:space="preserve"><tspan
         style="fill:#0000ff;stroke:#0000ff;stroke-width:0.26458332"
         y="265.061"
         x="122.65329"
         id="tspan52427"
         sodipodi:role="line">-</tspan></text>
    <text
       id="text52433"
       y="198.15921"
       x="106.96725"
       style="font-style:normal;font-weight:normal;font-size:14.11111069px;line-height:1.25;font-family:sans-serif;letter-spacing:0px;word-spacing:0px;fill:#0000ff;fill-opacity:1;stroke:#0000ff;stroke-width:0.26458332"
       xml:space="preserve"><tspan
         style="fill:#0000ff;stroke:#0000ff;stroke-width:0.26458332"
         y="198.15921"
         x="106.96725"
         id="tspan52431"
         sodipodi:role="line">+</tspan></text>
    <path
       inkscape:connector-curvature="0"
       id="path952"
       d="m 146.54123,244.88421 h 25.79688"
       style="fill:#0000ff;stroke:#0000ff;stroke-width:0.565;stroke-linecap:butt;stroke-linejoin:miter;stroke-miterlimit:4;stroke-dasharray:none;stroke-opacity:1;marker-end:url(#marker956)" />
  </g>
</svg>
